<svg width="180" height="67" xmlns="http://www.w3.org/2000/svg" viewBox="0 0 180.97 67.44">
    <path fill="#fff" d="M14.58,5.83v12.47c0,4.89-2.4,7.1-7.1,7.1-2.59,0-5.13-.78-6.61-2.19l.97-1.46c1.35,1.21,3.4,1.94,5.59,1.94,3.59,0,5.24-1.65,5.24-5.16v-1.81c-1.19,1.81-3.21,2.75-5.53,2.75-4.05,0-7.13-2.83-7.13-6.91s3.08-6.86,7.13-6.86c2.38,0,4.43.97,5.61,2.83v-2.73h1.84ZM12.71,12.58c0-3.08-2.27-5.18-5.4-5.18S1.94,9.5,1.94,12.58s2.24,5.21,5.37,5.21,5.4-2.13,5.4-5.21Z"/>
    <path fill="#fff" d="M35.02,13.52h-11.88c.22,2.97,2.48,4.94,5.59,4.94,1.73,0,3.27-.62,4.35-1.86l1.08,1.24c-1.27,1.51-3.24,2.32-5.48,2.32-4.43,0-7.45-3.02-7.45-7.23s2.94-7.21,6.94-7.21,6.88,2.94,6.88,7.21c0,.16-.03.38-.03.59ZM23.14,12.09h10.07c-.24-2.78-2.27-4.72-5.05-4.72s-4.78,1.94-5.02,4.72Z"/>
    <path fill="#fff" d="M65.09,11.8v8.23h-1.92v-8.04c0-3-1.51-4.54-4.08-4.54-2.92,0-4.75,1.89-4.75,5.13v7.45h-1.92v-8.04c0-3-1.51-4.54-4.1-4.54-2.89,0-4.75,1.89-4.75,5.13v7.45h-1.92V5.83h1.84v2.59c1-1.7,2.83-2.7,5.21-2.7s4.18,1,5.05,3c1.03-1.84,3.05-3,5.61-3,3.46,0,5.72,2,5.72,6.07Z"/>
    <path fill="#fff" d="M85.42,13.52h-11.88c.22,2.97,2.48,4.94,5.59,4.94,1.73,0,3.27-.62,4.35-1.86l1.08,1.24c-1.27,1.51-3.24,2.32-5.48,2.32-4.43,0-7.45-3.02-7.45-7.23s2.94-7.21,6.94-7.21,6.88,2.94,6.88,7.21c0,.16-.03.38-.03.59ZM73.55,12.09h10.07c-.24-2.78-2.27-4.72-5.05-4.72s-4.78,1.94-5.02,4.72Z"/>
    <path fill="#fff" d="M91.64,1.35c0-.73.62-1.35,1.4-1.35s1.4.59,1.4,1.32c0,.78-.59,1.4-1.4,1.4s-1.4-.62-1.4-1.38ZM92.07,5.83h1.92v14.2h-1.92V5.83Z"/>
    <path fill="#fff" d="M115.1,11.8v8.23h-1.92v-8.04c0-3-1.57-4.54-4.26-4.54-3.05,0-4.97,1.89-4.97,5.13v7.45h-1.92V5.83h1.84v2.62c1.03-1.73,2.94-2.73,5.4-2.73,3.46,0,5.83,2,5.83,6.07Z"/>
    <path fill="#fff" d="M121.04,18.41l.86-1.51c1.13.89,3.05,1.59,5.05,1.59,2.7,0,3.81-.92,3.81-2.32,0-3.7-9.2-.78-9.2-6.4,0-2.32,2-4.05,5.61-4.05,1.84,0,3.83.51,5.02,1.32l-.84,1.54c-1.24-.86-2.73-1.21-4.18-1.21-2.56,0-3.7,1-3.7,2.35,0,3.83,9.2.95,9.2,6.4,0,2.46-2.16,4.05-5.86,4.05-2.35,0-4.62-.76-5.78-1.75Z"/>
    <path fill="#fff" d="M149.63,11.23v8.8h-1.84v-2.21c-.86,1.46-2.54,2.35-4.89,2.35-3.21,0-5.18-1.67-5.18-4.13,0-2.19,1.4-4.02,5.48-4.02h4.51v-.86c0-2.43-1.38-3.75-4.02-3.75-1.84,0-3.56.65-4.72,1.67l-.86-1.43c1.43-1.21,3.54-1.92,5.78-1.92,3.67,0,5.75,1.84,5.75,5.51ZM147.71,15.76v-2.32h-4.45c-2.75,0-3.64,1.08-3.64,2.54,0,1.65,1.32,2.67,3.59,2.67s3.75-1.03,4.51-2.89Z"/>
    <path fill="#fff" d="M180.97,11.8v8.23h-1.92v-8.04c0-3-1.51-4.54-4.08-4.54-2.92,0-4.75,1.89-4.75,5.13v7.45h-1.92v-8.04c0-3-1.51-4.54-4.1-4.54-2.89,0-4.75,1.89-4.75,5.13v7.45h-1.92V5.83h1.84v2.59c1-1.7,2.83-2.7,5.21-2.7s4.18,1,5.05,3c1.03-1.84,3.05-3,5.61-3,3.46,0,5.72,2,5.72,6.07Z"/>
    <path fill="#fff" d="M22.21,52.35h5.04v11.44c-2.99,2.42-7.17,3.65-11.23,3.65-8.9,0-15.46-6.19-15.46-14.76s6.56-14.76,15.54-14.76c4.8,0,8.81,1.6,11.52,4.67l-3.36,3.28c-2.26-2.25-4.84-3.28-7.91-3.28-6.11,0-10.41,4.14-10.41,10.09s4.3,10.09,10.37,10.09c2.05,0,4.06-.41,5.9-1.48v-8.94Z"/>
    <path fill="#fff" d="M64.89,62.56v4.47h-21.53v-28.7h20.95v4.47h-15.62v7.46h13.86v4.39h-13.86v7.91h16.2Z"/>
    <path fill="#fff" d="M105.44,59.24c0,4.92-3.85,7.79-11.23,7.79h-14.27v-28.7h13.45c6.89,0,10.58,2.91,10.58,7.46,0,2.95-1.48,5.12-3.69,6.31,3.07.98,5.17,3.4,5.17,7.13ZM85.26,42.51v7.91h7.54c3.69,0,5.78-1.31,5.78-3.94s-2.09-3.98-5.78-3.98h-7.54ZM100.06,58.71c0-2.87-2.17-4.14-6.19-4.14h-8.61v8.28h8.61c4.02,0,6.19-1.27,6.19-4.14Z"/>
    <path fill="#fff" d="M140.76,62.56v4.47h-21.53v-28.7h20.95v4.47h-15.62v7.46h13.86v4.39h-13.86v7.91h16.2Z"/>
    <path fill="#fff" d="M180.31,38.33v28.7h-4.39l-15.83-19.43v19.43h-5.29v-28.7h4.39l15.83,19.43v-19.43h5.29Z"/>
</svg>